<svg version="1.1" xmlns="http://www.w3.org/2000/svg" x="0" y="0" viewBox="0 0 34 34" xml:space="preserve" enable-background="new 0 0 34 34"><path fill="#EC3538" d="M0 0h34v34H0z"/><g fill="#fff"><path d="M20 13.1c0 .4.1.7.3.9.2.2.4.3.7.3.3 0 .5-.1.8-.2.3-.1.6-.4.8-.6v.8H24v-7h-1.4v5.3c-.1.2-.3.3-.4.4-.2.1-.3.1-.4.1-.1 0-.2 0-.3-.1-.1-.1-.1-.2-.1-.4V7.3H20v5.8zM18.3 7.6c-.4-.3-.9-.5-1.4-.5-.6 0-1.2.2-1.5.5-.4.3-.6.7-.6 1.3v3.6c0 .6.2 1.1.6 1.4.4.4.9.5 1.5.5s1.2-.2 1.5-.5c.4-.3.6-.8.6-1.4V8.9c-.1-.5-.3-1-.7-1.3zm-.9 5c0 .2-.1.3-.2.4-.1.1-.3.2-.5.2s-.3-.1-.4-.2c-.1-.1-.2-.3-.2-.4V8.8c0-.2.1-.3.2-.4.1-.1.3-.1.4-.1.2 0 .3 0 .5.1.1.1.2.2.2.4v3.8zM9.2 4.8l1.9 5.7v3.7h1.6v-3.9l1.9-5.5H13l-1 3.8h-.1l-1.1-3.8zM19.3 21.2c-.1 0-.2 0-.3.1-.1 0-.2.1-.3.2v3.9c.1.1.2.2.3.2.1 0 .2.1.3.1.2 0 .3 0 .3-.1.1-.1.1-.2.1-.4v-3.3c0-.2 0-.4-.1-.5 0-.1-.1-.2-.3-.2zM23.7 21.2c-.2 0-.3.1-.4.2-.1.1-.1.3-.1.6v.6h1.1V22c0-.3 0-.5-.1-.6-.2-.1-.3-.2-.5-.2zM24.9 16.4H9.1c-2.5 0-4.6 2-4.6 4.6v3.7c0 2.5 2 4.6 4.6 4.6H25c2.5 0 4.6-2 4.6-4.6V21c-.1-2.5-2.1-4.6-4.7-4.6zm-12.5 2.9h-1.5v7.3H9.5v-7.3H8V18h4.4v1.3zm4.2 7.3h-1.3v-.7c-.2.3-.5.5-.7.6-.3.1-.5.2-.7.2-.3 0-.5-.1-.7-.3-.2-.2-.2-.5-.2-.8v-5.3h1.3v4.9c0 .1 0 .3.1.3.1.1.1.1.3.1.1 0 .2 0 .4-.1.1-.1.3-.2.4-.3v-4.8h1.3v6.2zm4.6-1.3c0 .4-.1.8-.3 1-.2.2-.5.4-.9.4-.2 0-.5 0-.7-.1-.2-.1-.4-.2-.5-.4v.5h-1.3V18h1.3v2.8c.2-.2.4-.3.5-.4.2-.1.4-.1.6-.1.4 0 .7.1.9.4.2.3.3.7.3 1.2v3.4zm4.3-1.7h-2.4v1.2c0 .3 0 .6.1.7.1.1.2.2.4.2s.4-.1.4-.2c.1-.1.1-.3.1-.7v-.3h1.3v.3c0 .6-.2 1.1-.5 1.5-.3.3-.8.5-1.4.5-.6 0-1-.2-1.3-.5-.3-.3-.5-.8-.5-1.4V22c0-.5.2-1 .5-1.3.4-.3.8-.5 1.4-.5.6 0 1 .2 1.3.5.3.3.5.8.5 1.4v1.5z"/></g></svg>