<svg version="1.1" xmlns="http://www.w3.org/2000/svg" x="0" y="0" viewBox="0 0 34 34" xml:space="preserve" enable-background="new 0 0 34 34"><path fill="#D95442" d="M0 0h34v34H0z"/><g fill="#fff"><path d="M17.4 18.5c-.6-.4-1.8-1.3-1.8-1.9 0-.7.2-1 1.2-1.9 1.1-.8 1.8-1.9 1.8-3.3 0-1.5-.6-2.8-1.8-3.5h1.6l1.4-1.5h-6.2c-3.1 0-5.8 2.3-5.8 4.9 0 2.6 1.7 4.7 4.7 4.7h.6c-.2.4-.3.8-.3 1.2 0 .7.4 1.1.9 1.6h-1.1c-3.6 0-6.1 2.5-6.1 4.9 0 2.3 3 3.8 6.6 3.8 4.1 0 6.6-2.3 6.6-4.7.1-1.8-.3-2.8-2.3-4.3zm-7.2-7.2c-.3-2.2.8-3.9 2.5-3.8 1.7.1 3.1 1.8 3.4 4 .3 2.2-.7 3.6-2.3 3.6-1.7-.1-3.3-1.6-3.6-3.8zm2.9 15.2c-2.5 0-4.3-1.6-4.3-3.5s2.1-3.5 4.6-3.4c.6 0 1.1.1 1.6.3 1.4.9 2.4 1.5 2.7 2.6.1.2.1.4.1.7 0 1.8-1.2 3.3-4.7 3.3zM27.5 11.1h-2.9v2.8h-1.4v-2.8h-2.8V9.6h2.8V6.8h1.4v2.8h2.9z"/></g></svg>