<svg version="1.1" xmlns="http://www.w3.org/2000/svg" x="0" y="0" viewBox="0 0 792 612" xml:space="preserve" enable-background="new 0 0 792 612"><path d="M367.9 328.6h-4v-22.8h4v22.8zm4.9 0V312h3.4l.3 1.8c.5-.7 1.2-1.2 2.1-1.6.8-.4 1.8-.6 2.9-.6.9 0 1.7.1 2.5.4.7.2 1.4.6 1.9 1.1.5.5 1 1.1 1.2 1.8.3.7.4 1.6.4 2.6v11.2h-3.9v-10.2c0-1.3-.2-2.3-.7-2.9-.5-.6-1.3-.8-2.5-.8-1.3 0-2.2.3-2.8 1-.6.7-.9 1.7-.9 3.2v9.7h-3.9zm23.7-13.7v7.9c0 1.2.2 2 .7 2.5.5.5 1.2.7 2.2.7.5 0 .9 0 1.2-.1.3 0 .7-.1 1.1-.2l-.5 2.8c-.3.1-.8.2-1.3.3-.6.1-1.1.1-1.7.1-1 0-1.8-.1-2.5-.3-.7-.2-1.3-.6-1.7-1.1-.5-.5-.8-1.2-1-2-.2-.8-.3-1.8-.3-2.9v-7.7h-3.1l.4-2.9h2.7v-4.1l3.9-.5v4.6h5.1l-.4 2.9h-4.8zm18.3.4c-.3-.1-.6-.1-.9-.2-.4-.1-.7-.1-1.1-.1-1.4 0-2.4.4-3.1 1.1-.6.7-.9 1.9-.9 3.4v9h-3.9v-16.6h3.4l.3 2c.5-.7 1.2-1.3 2-1.7.8-.4 1.7-.6 2.9-.6.4 0 .8 0 1.1.1.3.1.7.1 1 .3l-.8 3.3zm1.7 8.1c0-1 .1-1.8.4-2.4.3-.7.7-1.2 1.2-1.6.5-.4 1.2-.7 2-.9.8-.2 1.6-.3 2.6-.3s1.8.1 2.5.3c.7.2 1.2.5 1.7 1v-1.1c0-1.4-.4-2.4-1.1-3-.7-.6-1.8-.9-3.3-.9-.8 0-1.5.1-2.3.2-.8.1-1.5.3-2.2.4l.5-2.9c.7-.2 1.5-.4 2.4-.5.9-.1 1.8-.2 2.6-.2 1.1 0 2.1.1 3 .4.9.2 1.7.6 2.3 1.1.6.5 1.1 1.2 1.5 2 .3.8.5 1.7.5 2.8v10.7h-3.3l-.3-1.7c-.5.7-1.1 1.2-1.9 1.5-.8.3-1.8.5-2.9.5-.8 0-1.6-.1-2.3-.3-.7-.2-1.3-.5-1.8-.9s-.9-.9-1.2-1.6c-.3-.6-.4-1.4-.4-2.4v-.2zm3.7.1c0 .8.3 1.4.8 1.8.5.4 1.3.6 2.4.6 1.2 0 2.1-.2 2.7-.7.6-.5.8-1.1.8-1.9v-.3c0-.7-.3-1.2-.8-1.6-.5-.4-1.3-.6-2.4-.6h-.5c-1 0-1.8.2-2.3.6-.5.4-.7 1-.7 1.8v.3zm23.6-18.2c1.9 0 3.4.3 4.6.8 1.2.5 2.1 1.2 2.8 2.2.7.9 1.2 2 1.4 3.3.3 1.3.4 2.7.4 4.3v2.8c0 1.6-.1 3-.4 4.3-.3 1.3-.8 2.4-1.4 3.3-.7.9-1.6 1.6-2.8 2.1-1.2.5-2.7.8-4.5.8-1.8 0-3.3-.3-4.5-.8-1.2-.5-2.1-1.2-2.8-2.2-.7-.9-1.2-2-1.4-3.3-.3-1.3-.4-2.7-.4-4.3v-2.8c0-1.6.1-3 .4-4.3.3-1.3.8-2.4 1.5-3.3.7-.9 1.6-1.6 2.8-2.1 1-.6 2.5-.8 4.3-.8zm0 20.4c.8 0 1.5-.1 2.2-.3.6-.2 1.2-.6 1.6-1.1.4-.5.8-1.3 1-2.2.2-.9.3-2.1.3-3.6v-2.8c0-1.5-.1-2.7-.3-3.6-.2-.9-.5-1.7-.9-2.2-.4-.5-.9-.9-1.6-1.1-.6-.2-1.4-.3-2.2-.3-.8 0-1.5.1-2.2.3-.6.2-1.2.6-1.6 1.1-.4.5-.8 1.2-1 2.2-.2.9-.3 2.1-.3 3.6v2.8c0 1.5.1 2.7.3 3.6.2.9.5 1.6 1 2.2.4.5 1 .9 1.6 1.1.5.2 1.3.3 2.1.3zm27.8-5c0 1.4-.2 2.6-.5 3.6s-.8 1.9-1.4 2.5c-.6.7-1.4 1.2-2.2 1.5-.9.3-1.8.5-2.9.5-.8 0-1.5-.1-2.2-.3-.6-.2-1.3-.5-2-.9v8.3h-3.9v-24.1h3.4l.3 1.8c1.1-1.4 2.8-2.1 5.1-2.1 1 0 1.9.1 2.7.4.8.3 1.5.8 2 1.4.5.6 1 1.5 1.2 2.5.3 1 .4 2.3.4 3.8v1.1zm-4-1c0-.8 0-1.5-.1-2.1-.1-.6-.3-1.2-.5-1.6-.3-.4-.6-.8-1.1-1-.5-.2-1.1-.4-1.8-.4s-1.4.1-1.8.3c-.5.2-.8.5-1.1.9-.3.4-.5.9-.6 1.4-.1.5-.2 1.1-.2 1.7v6c.6.3 1.1.5 1.6.7.5.1 1 .2 1.7.2 1.4 0 2.5-.4 3.1-1.2.6-.8.9-2 .9-3.7v-1.2zM472.9 313.6c0-.3.1-.5.2-.8.1-.2.3-.5.4-.6.2-.2.4-.3.6-.4s.5-.2.8-.2c.3 0 .5.1.8.2s.5.3.6.4c.2.2.3.4.4.6.1.2.2.5.2.8 0 .3-.1.5-.2.8-.1.2-.3.5-.4.6-.2.2-.4.3-.6.4s-.5.2-.8.2c-.3 0-.5-.1-.8-.2s-.5-.3-.6-.4c-.2-.2-.3-.4-.4-.6-.1-.2-.2-.5-.2-.8zm.3 0c0 .2 0 .5.1.7.1.2.2.4.4.6.2.2.3.3.6.4.2.1.4.1.7.1.2 0 .5 0 .7-.1.2-.1.4-.2.6-.4.2-.2.3-.3.4-.6.1-.2.1-.4.1-.7s0-.5-.1-.7c-.1-.2-.2-.4-.4-.6-.2-.2-.3-.3-.6-.4-.2-.1-.4-.1-.7-.1-.2 0-.5 0-.7.1-.2.1-.4.2-.6.4-.2.2-.3.3-.4.6 0 .3-.1.5-.1.7zm1.3 1.2h-.3v-2.4h.9c.3 0 .5.1.6.2.1.1.2.3.2.5v.3c0 .1-.1.1-.1.2-.1.1-.1.1-.2.1s-.1.1-.2.1l.7 1h-.3l-.7-1h-.4v1zm0-1.3h.8c.1 0 .1-.1.2-.1 0-.1.1-.1.1-.2v-.2l-.1-.1s-.1-.1-.2-.1h-.7v.7z" fill="#53565A"/><g fill="#9E1C66"><path d="M348.5 301.7l-4.2 5.1-8.3 1.8-1.7-6.2 6.9-8.8 7.3 8.1zm-8-9.8l-1.7-3.9-16.4-11.2-6.2-.8 5.1 11.8 19.2 4.1zm8.6 8.9l3-6.4v-2.7l-6.2-1.6-3.9 2.8 7.1 7.9zm-8.6-7.9l-18.7-4 1.1 2.5 10.9 10.2 6.7-8.7zm12.6-1.1v2.3l14.7-1.2c.1 0 .1-.1.1-.1 0-.1-.1-.1-.1-.1l-14.7-.9zm-11.3 16.6l7.1 7.9 4.2-2.5-8.7-5.9-2.6.5zm-1.2.2l-.9.2 1 9.6 5 4.3 2.5-5.8-7.6-8.3zm-1.9.5l-2.5.5-2 5.7 3.3 5.8 2.3-2.6-1.1-9.4zM348.3 321.4h-.5v-.2h1.3v.2h-.5v1.4h-.2v-1.4zM349.2 321.1h.3l.5 1.3.5-1.3h.3v1.7h-.2v-1.4l-.6 1.4-.6-1.4v1.4h-.2v-1.7z"/></g></svg>