<?xml version="1.0" encoding="utf-8"?>
<!-- Generator: Adobe Illustrator 18.1.1, SVG Export Plug-In . SVG Version: 6.00 Build 0)  -->
<!DOCTYPE svg PUBLIC "-//W3C//DTD SVG 1.1//EN" "http://www.w3.org/Graphics/SVG/1.1/DTD/svg11.dtd">
<svg version="1.1" id="Layer_1" xmlns="http://www.w3.org/2000/svg" xmlns:xlink="http://www.w3.org/1999/xlink" x="0px" y="0px"
	 viewBox="0 0 34 34" style="enable-background:new 0 0 34 34;" xml:space="preserve">
<rect x="0" y="0" style="fill:#D95442;" width="34" height="34"/>
<g>
	<path style="fill:#FFFFFF;" d="M17.4,18.5c-0.6-0.4-1.8-1.3-1.8-1.9c0-0.7,0.2-1,1.2-1.9c1.1-0.8,1.8-1.9,1.8-3.3
		c0-1.5-0.6-2.8-1.8-3.5h1.6l1.4-1.5c0,0-4.6,0-6.2,0c-3.1,0-5.8,2.3-5.8,4.9c0,2.6,1.7,4.7,4.7,4.7c0.2,0,0.4,0,0.6,0
		c-0.2,0.4-0.3,0.8-0.3,1.2c0,0.7,0.4,1.1,0.9,1.6c-0.4,0-0.7,0-1.1,0c-3.6,0-6.1,2.5-6.1,4.9c0,2.3,3,3.8,6.6,3.8
		c4.1,0,6.6-2.3,6.6-4.7C19.8,21,19.4,20,17.4,18.5z M10.2,11.3c-0.3-2.2,0.8-3.9,2.5-3.8c1.7,0.1,3.1,1.8,3.4,4
		c0.3,2.2-0.7,3.6-2.3,3.6C12.1,15,10.5,13.5,10.2,11.3z M13.1,26.5c-2.5,0-4.3-1.6-4.3-3.5c0-1.9,2.1-3.5,4.6-3.4
		c0.6,0,1.1,0.1,1.6,0.3c1.4,0.9,2.4,1.5,2.7,2.6c0.1,0.2,0.1,0.4,0.1,0.7C17.8,25,16.6,26.5,13.1,26.5z"/>
	<polygon style="fill:#FFFFFF;" points="27.5,11.1 24.6,11.1 24.6,13.9 23.2,13.9 23.2,11.1 20.4,11.1 20.4,9.6 23.2,9.6 23.2,6.8 
		24.6,6.8 24.6,9.6 27.5,9.6 	"/>
</g>
</svg>
