<?xml version="1.0" encoding="utf-8"?>
<!-- Generator: Adobe Illustrator 18.1.1, SVG Export Plug-In . SVG Version: 6.00 Build 0)  -->
<!DOCTYPE svg PUBLIC "-//W3C//DTD SVG 1.1//EN" "http://www.w3.org/Graphics/SVG/1.1/DTD/svg11.dtd">
<svg version="1.1" id="Layer_1" xmlns="http://www.w3.org/2000/svg" xmlns:xlink="http://www.w3.org/1999/xlink" x="0px" y="0px"
	 viewBox="0 0 34 34" style="enable-background:new 0 0 34 34;" xml:space="preserve">
<rect x="0" y="0" style="fill:#046C9A;" width="34" height="34"/>
<path style="fill:#FFFFFF;" d="M18,15.8C18,15.7,18,15.7,18,15.8L18,15.8L18,15.8z M12.4,14.2H8.7v11h3.6V14.2z M12.6,10.8
	c0-1.1-0.8-1.9-2-1.9c-1.2,0-2.1,0.8-2.1,1.9c0,1.1,0.8,1.9,2,1.9h0C11.8,12.7,12.6,11.8,12.6,10.8z M25.5,18.8
	c0-3.4-1.8-4.9-4.2-4.9c-1.9,0-2.8,1.1-3.3,1.8v-1.6h-3.6c0,1,0,11,0,11H18V19c0-0.3,0-0.7,0.1-0.9c0.3-0.7,0.9-1.3,1.9-1.3
	c1.3,0,1.8,1,1.8,2.5v5.9h3.6V18.8z"/>
</svg>
