<?xml version="1.0" encoding="utf-8"?>
<!-- Generator: Adobe Illustrator 18.1.1, SVG Export Plug-In . SVG Version: 6.00 Build 0)  -->
<!DOCTYPE svg PUBLIC "-//W3C//DTD SVG 1.1//EN" "http://www.w3.org/Graphics/SVG/1.1/DTD/svg11.dtd">
<svg version="1.1" id="Layer_1" xmlns="http://www.w3.org/2000/svg" xmlns:xlink="http://www.w3.org/1999/xlink" x="0px" y="0px"
	 viewBox="0 0 34 34" style="enable-background:new 0 0 34 34;" xml:space="preserve">
<rect x="0" y="0" style="fill:#EC3538;" width="34" height="34"/>
<g>
	<path style="fill:#FFFFFF;" d="M20,13.1c0,0.4,0.1,0.7,0.3,0.9c0.2,0.2,0.4,0.3,0.7,0.3c0.3,0,0.5-0.1,0.8-0.2
		c0.3-0.1,0.6-0.4,0.8-0.6v0.8h1.4v-7h-1.4v5.3c-0.1,0.2-0.3,0.3-0.4,0.4c-0.2,0.1-0.3,0.1-0.4,0.1c-0.1,0-0.2,0-0.3-0.1
		c-0.1-0.1-0.1-0.2-0.1-0.4V7.3H20V13.1z"/>
	<path style="fill:#FFFFFF;" d="M18.3,7.6c-0.4-0.3-0.9-0.5-1.4-0.5c-0.6,0-1.2,0.2-1.5,0.5c-0.4,0.3-0.6,0.7-0.6,1.3v3.6
		c0,0.6,0.2,1.1,0.6,1.4c0.4,0.4,0.9,0.5,1.5,0.5c0.6,0,1.2-0.2,1.5-0.5c0.4-0.3,0.6-0.8,0.6-1.4V8.9C18.9,8.4,18.7,7.9,18.3,7.6z
		 M17.4,12.6c0,0.2-0.1,0.3-0.2,0.4c-0.1,0.1-0.3,0.2-0.5,0.2c-0.2,0-0.3-0.1-0.4-0.2c-0.1-0.1-0.2-0.3-0.2-0.4V8.8
		c0-0.2,0.1-0.3,0.2-0.4c0.1-0.1,0.3-0.1,0.4-0.1c0.2,0,0.3,0,0.5,0.1c0.1,0.1,0.2,0.2,0.2,0.4V12.6z"/>
	<polygon style="fill:#FFFFFF;" points="9.2,4.8 11.1,10.5 11.1,14.2 12.7,14.2 12.7,10.3 14.6,4.8 13,4.8 12,8.6 11.9,8.6 
		10.8,4.8 	"/>
	<g>
		<path style="fill:#FFFFFF;" d="M19.3,21.2c-0.1,0-0.2,0-0.3,0.1c-0.1,0-0.2,0.1-0.3,0.2v3.9c0.1,0.1,0.2,0.2,0.3,0.2
			c0.1,0,0.2,0.1,0.3,0.1c0.2,0,0.3,0,0.3-0.1c0.1-0.1,0.1-0.2,0.1-0.4v-3.3c0-0.2,0-0.4-0.1-0.5C19.6,21.3,19.5,21.2,19.3,21.2z"/>
		<path style="fill:#FFFFFF;" d="M23.7,21.2c-0.2,0-0.3,0.1-0.4,0.2c-0.1,0.1-0.1,0.3-0.1,0.6v0.6h1.1V22c0-0.3,0-0.5-0.1-0.6
			C24,21.3,23.9,21.2,23.7,21.2z"/>
		<path style="fill:#FFFFFF;" d="M24.9,16.4H9.1c-2.5,0-4.6,2-4.6,4.6v3.7c0,2.5,2,4.6,4.6,4.6h15.9c2.5,0,4.6-2,4.6-4.6V21
			C29.5,18.5,27.5,16.4,24.9,16.4z M12.4,19.3h-1.5v7.3H9.5v-7.3H8V18h4.4V19.3z M16.6,26.6h-1.3v-0.7c-0.2,0.3-0.5,0.5-0.7,0.6
			c-0.3,0.1-0.5,0.2-0.7,0.2c-0.3,0-0.5-0.1-0.7-0.3C13,26.2,13,25.9,13,25.6v-5.3h1.3v4.9c0,0.1,0,0.3,0.1,0.3
			c0.1,0.1,0.1,0.1,0.3,0.1c0.1,0,0.2,0,0.4-0.1c0.1-0.1,0.3-0.2,0.4-0.3v-4.8h1.3V26.6z M21.2,25.3c0,0.4-0.1,0.8-0.3,1
			c-0.2,0.2-0.5,0.4-0.9,0.4c-0.2,0-0.5,0-0.7-0.1c-0.2-0.1-0.4-0.2-0.5-0.4v0.5h-1.3V18h1.3v2.8c0.2-0.2,0.4-0.3,0.5-0.4
			c0.2-0.1,0.4-0.1,0.6-0.1c0.4,0,0.7,0.1,0.9,0.4c0.2,0.3,0.3,0.7,0.3,1.2V25.3z M25.5,23.6h-2.4v1.2c0,0.3,0,0.6,0.1,0.7
			c0.1,0.1,0.2,0.2,0.4,0.2c0.2,0,0.4-0.1,0.4-0.2c0.1-0.1,0.1-0.3,0.1-0.7v-0.3h1.3v0.3c0,0.6-0.2,1.1-0.5,1.5
			c-0.3,0.3-0.8,0.5-1.4,0.5c-0.6,0-1-0.2-1.3-0.5c-0.3-0.3-0.5-0.8-0.5-1.4V22c0-0.5,0.2-1,0.5-1.3c0.4-0.3,0.8-0.5,1.4-0.5
			c0.6,0,1,0.2,1.3,0.5c0.3,0.3,0.5,0.8,0.5,1.4V23.6z"/>
	</g>
</g>
</svg>
