<svg>
  <defs>

    <symbol id="facebook" viewBox="0 0 34 34">
      <rect class="bg" x="0" y="0" style="fill:#36609E;" width="34" height="34"/>
      <path style="fill:#FFFFFF;" d="M20.6,17h-2.4c0,3.8,0,8.5,0,8.5h-3.5c0,0,0-4.6,0-8.5h-1.7v-3h1.7v-1.9c0-1.4,0.7-3.6,3.6-3.6l2.6,0
        v2.9c0,0-1.6,0-1.9,0c-0.3,0-0.7,0.2-0.7,0.8V14H21L20.6,17z"/>
    </symbol>

    <symbol id="googleplus" viewBox="0 0 34 34">
      <rect class="bg" x="0" y="0" style="fill:#D95442;" width="34" height="34"/>
      <g>
        <path style="fill:#FFFFFF;" d="M17.4,18.5c-0.6-0.4-1.8-1.3-1.8-1.9c0-0.7,0.2-1,1.2-1.9c1.1-0.8,1.8-1.9,1.8-3.3
          c0-1.5-0.6-2.8-1.8-3.5h1.6l1.4-1.5c0,0-4.6,0-6.2,0c-3.1,0-5.8,2.3-5.8,4.9c0,2.6,1.7,4.7,4.7,4.7c0.2,0,0.4,0,0.6,0
          c-0.2,0.4-0.3,0.8-0.3,1.2c0,0.7,0.4,1.1,0.9,1.6c-0.4,0-0.7,0-1.1,0c-3.6,0-6.1,2.5-6.1,4.9c0,2.3,3,3.8,6.6,3.8
          c4.1,0,6.6-2.3,6.6-4.7C19.8,21,19.4,20,17.4,18.5z M10.2,11.3c-0.3-2.2,0.8-3.9,2.5-3.8c1.7,0.1,3.1,1.8,3.4,4
          c0.3,2.2-0.7,3.6-2.3,3.6C12.1,15,10.5,13.5,10.2,11.3z M13.1,26.5c-2.5,0-4.3-1.6-4.3-3.5c0-1.9,2.1-3.5,4.6-3.4
          c0.6,0,1.1,0.1,1.6,0.3c1.4,0.9,2.4,1.5,2.7,2.6c0.1,0.2,0.1,0.4,0.1,0.7C17.8,25,16.6,26.5,13.1,26.5z"/>
        <polygon style="fill:#FFFFFF;" points="27.5,11.1 24.6,11.1 24.6,13.9 23.2,13.9 23.2,11.1 20.4,11.1 20.4,9.6 23.2,9.6 23.2,6.8 
          24.6,6.8 24.6,9.6 27.5,9.6  "/>
      </g>
    </symbol>

    <symbol id="linkedin" viewBox="0 0 34 34">
      <rect class="bg" x="0" y="0" style="fill:#046C9A;" width="34" height="34"/>
      <path style="fill:#FFFFFF;" d="M18,15.8C18,15.7,18,15.7,18,15.8L18,15.8L18,15.8z M12.4,14.2H8.7v11h3.6V14.2z M12.6,10.8
        c0-1.1-0.8-1.9-2-1.9c-1.2,0-2.1,0.8-2.1,1.9c0,1.1,0.8,1.9,2,1.9h0C11.8,12.7,12.6,11.8,12.6,10.8z M25.5,18.8
        c0-3.4-1.8-4.9-4.2-4.9c-1.9,0-2.8,1.1-3.3,1.8v-1.6h-3.6c0,1,0,11,0,11H18V19c0-0.3,0-0.7,0.1-0.9c0.3-0.7,0.9-1.3,1.9-1.3
        c1.3,0,1.8,1,1.8,2.5v5.9h3.6V18.8z"/>
    </symbol>

    <symbol id="twitter" viewBox="0 0 34 34">
      <rect x="0" y="0" style="fill:#29A7DF;" width="34" height="34"/>
      <path style="fill:#FFFFFF;" d="M23.8,13.5c0,0.1,0,0.3,0,0.5c0,4.6-3.5,9.9-9.9,9.9c-2,0-3.8-0.6-5.3-1.6c0.3,0,0.6,0,0.8,0
        c1.6,0,3.1-0.6,4.3-1.5c-1.5,0-2.8-1-3.3-2.4c0.2,0,0.4,0.1,0.7,0.1c0.3,0,0.6,0,0.9-0.1c-1.6-0.3-2.8-1.7-2.8-3.4c0,0,0,0,0,0
        c0.5,0.3,1,0.4,1.6,0.4c-0.9-0.6-1.6-1.7-1.6-2.9c0-0.6,0.2-1.2,0.5-1.8c1.7,2.1,4.3,3.5,7.2,3.6c-0.1-0.3-0.1-0.5-0.1-0.8
        c0-1.9,1.6-3.5,3.5-3.5c1,0,1.9,0.4,2.5,1.1c0.8-0.2,1.5-0.4,2.2-0.8c-0.3,0.8-0.8,1.5-1.5,1.9c0.7-0.1,1.4-0.3,2-0.5
        C25,12.4,24.4,13,23.8,13.5z"/>
    </symbol>

    <symbol id="youtube" viewBox="0 0 34 34">
      <rect class="bg" x="0" y="0" style="fill:#EC3538;" width="34" height="34"/>
      <g>
        <path style="fill:#FFFFFF;" d="M20,13.1c0,0.4,0.1,0.7,0.3,0.9c0.2,0.2,0.4,0.3,0.7,0.3c0.3,0,0.5-0.1,0.8-0.2
          c0.3-0.1,0.6-0.4,0.8-0.6v0.8h1.4v-7h-1.4v5.3c-0.1,0.2-0.3,0.3-0.4,0.4c-0.2,0.1-0.3,0.1-0.4,0.1c-0.1,0-0.2,0-0.3-0.1
          c-0.1-0.1-0.1-0.2-0.1-0.4V7.3H20V13.1z"/>
        <path style="fill:#FFFFFF;" d="M18.3,7.6c-0.4-0.3-0.9-0.5-1.4-0.5c-0.6,0-1.2,0.2-1.5,0.5c-0.4,0.3-0.6,0.7-0.6,1.3v3.6
          c0,0.6,0.2,1.1,0.6,1.4c0.4,0.4,0.9,0.5,1.5,0.5c0.6,0,1.2-0.2,1.5-0.5c0.4-0.3,0.6-0.8,0.6-1.4V8.9C18.9,8.4,18.7,7.9,18.3,7.6z
           M17.4,12.6c0,0.2-0.1,0.3-0.2,0.4c-0.1,0.1-0.3,0.2-0.5,0.2c-0.2,0-0.3-0.1-0.4-0.2c-0.1-0.1-0.2-0.3-0.2-0.4V8.8
          c0-0.2,0.1-0.3,0.2-0.4c0.1-0.1,0.3-0.1,0.4-0.1c0.2,0,0.3,0,0.5,0.1c0.1,0.1,0.2,0.2,0.2,0.4V12.6z"/>
        <polygon style="fill:#FFFFFF;" points="9.2,4.8 11.1,10.5 11.1,14.2 12.7,14.2 12.7,10.3 14.6,4.8 13,4.8 12,8.6 11.9,8.6 
          10.8,4.8  "/>
        <g>
          <path style="fill:#FFFFFF;" d="M19.3,21.2c-0.1,0-0.2,0-0.3,0.1c-0.1,0-0.2,0.1-0.3,0.2v3.9c0.1,0.1,0.2,0.2,0.3,0.2
            c0.1,0,0.2,0.1,0.3,0.1c0.2,0,0.3,0,0.3-0.1c0.1-0.1,0.1-0.2,0.1-0.4v-3.3c0-0.2,0-0.4-0.1-0.5C19.6,21.3,19.5,21.2,19.3,21.2z"/>
          <path style="fill:#FFFFFF;" d="M23.7,21.2c-0.2,0-0.3,0.1-0.4,0.2c-0.1,0.1-0.1,0.3-0.1,0.6v0.6h1.1V22c0-0.3,0-0.5-0.1-0.6
            C24,21.3,23.9,21.2,23.7,21.2z"/>
          <path style="fill:#FFFFFF;" d="M24.9,16.4H9.1c-2.5,0-4.6,2-4.6,4.6v3.7c0,2.5,2,4.6,4.6,4.6h15.9c2.5,0,4.6-2,4.6-4.6V21
            C29.5,18.5,27.5,16.4,24.9,16.4z M12.4,19.3h-1.5v7.3H9.5v-7.3H8V18h4.4V19.3z M16.6,26.6h-1.3v-0.7c-0.2,0.3-0.5,0.5-0.7,0.6
            c-0.3,0.1-0.5,0.2-0.7,0.2c-0.3,0-0.5-0.1-0.7-0.3C13,26.2,13,25.9,13,25.6v-5.3h1.3v4.9c0,0.1,0,0.3,0.1,0.3
            c0.1,0.1,0.1,0.1,0.3,0.1c0.1,0,0.2,0,0.4-0.1c0.1-0.1,0.3-0.2,0.4-0.3v-4.8h1.3V26.6z M21.2,25.3c0,0.4-0.1,0.8-0.3,1
            c-0.2,0.2-0.5,0.4-0.9,0.4c-0.2,0-0.5,0-0.7-0.1c-0.2-0.1-0.4-0.2-0.5-0.4v0.5h-1.3V18h1.3v2.8c0.2-0.2,0.4-0.3,0.5-0.4
            c0.2-0.1,0.4-0.1,0.6-0.1c0.4,0,0.7,0.1,0.9,0.4c0.2,0.3,0.3,0.7,0.3,1.2V25.3z M25.5,23.6h-2.4v1.2c0,0.3,0,0.6,0.1,0.7
            c0.1,0.1,0.2,0.2,0.4,0.2c0.2,0,0.4-0.1,0.4-0.2c0.1-0.1,0.1-0.3,0.1-0.7v-0.3h1.3v0.3c0,0.6-0.2,1.1-0.5,1.5
            c-0.3,0.3-0.8,0.5-1.4,0.5c-0.6,0-1-0.2-1.3-0.5c-0.3-0.3-0.5-0.8-0.5-1.4V22c0-0.5,0.2-1,0.5-1.3c0.4-0.3,0.8-0.5,1.4-0.5
            c0.6,0,1,0.2,1.3,0.5c0.3,0.3,0.5,0.8,0.5,1.4V23.6z"/>
        </g>
      </g>
    </symbol>
  </defs>
</svg>

