<?xml version="1.0" encoding="utf-8"?>
<!-- Generator: Adobe Illustrator 18.1.1, SVG Export Plug-In . SVG Version: 6.00 Build 0)  -->
<!DOCTYPE svg PUBLIC "-//W3C//DTD SVG 1.1//EN" "http://www.w3.org/Graphics/SVG/1.1/DTD/svg11.dtd">
<svg version="1.1" id="Layer_1" xmlns="http://www.w3.org/2000/svg" xmlns:xlink="http://www.w3.org/1999/xlink" x="0px" y="0px"
	 viewBox="0 0 792 612" style="enable-background:new 0 0 792 612;" xml:space="preserve">
<g>
	<g>
		<path style="fill:#53565A;" d="M367.9,328.6h-4v-22.8h4V328.6z M372.8,328.6v-16.6h3.4l0.3,1.8c0.5-0.7,1.2-1.2,2.1-1.6
			c0.8-0.4,1.8-0.6,2.9-0.6c0.9,0,1.7,0.1,2.5,0.4c0.7,0.2,1.4,0.6,1.9,1.1c0.5,0.5,1,1.1,1.2,1.8c0.3,0.7,0.4,1.6,0.4,2.6v11.2
			h-3.9v-10.2c0-1.3-0.2-2.3-0.7-2.9c-0.5-0.6-1.3-0.8-2.5-0.8c-1.3,0-2.2,0.3-2.8,1c-0.6,0.7-0.9,1.7-0.9,3.2v9.7H372.8z
			 M396.5,314.9v7.9c0,1.2,0.2,2,0.7,2.5c0.5,0.5,1.2,0.7,2.2,0.7c0.5,0,0.9,0,1.2-0.1c0.3,0,0.7-0.1,1.1-0.2l-0.5,2.8
			c-0.3,0.1-0.8,0.2-1.3,0.3c-0.6,0.1-1.1,0.1-1.7,0.1c-1,0-1.8-0.1-2.5-0.3c-0.7-0.2-1.3-0.6-1.7-1.1c-0.5-0.5-0.8-1.2-1-2
			c-0.2-0.8-0.3-1.8-0.3-2.9v-7.7h-3.1l0.4-2.9h2.7v-4.1l3.9-0.5v4.6h5.1l-0.4,2.9H396.5z M414.8,315.3c-0.3-0.1-0.6-0.1-0.9-0.2
			c-0.4-0.1-0.7-0.1-1.1-0.1c-1.4,0-2.4,0.4-3.1,1.1c-0.6,0.7-0.9,1.9-0.9,3.4v9h-3.9v-16.6h3.4l0.3,2c0.5-0.7,1.2-1.3,2-1.7
			c0.8-0.4,1.7-0.6,2.9-0.6c0.4,0,0.8,0,1.1,0.1c0.3,0.1,0.7,0.1,1,0.3L414.8,315.3z M416.5,323.4c0-1,0.1-1.8,0.4-2.4
			c0.3-0.7,0.7-1.2,1.2-1.6c0.5-0.4,1.2-0.7,2-0.9c0.8-0.2,1.6-0.3,2.6-0.3c1,0,1.8,0.1,2.5,0.3c0.7,0.2,1.2,0.5,1.7,1v-1.1
			c0-1.4-0.4-2.4-1.1-3c-0.7-0.6-1.8-0.9-3.3-0.9c-0.8,0-1.5,0.1-2.3,0.2c-0.8,0.1-1.5,0.3-2.2,0.4l0.5-2.9c0.7-0.2,1.5-0.4,2.4-0.5
			c0.9-0.1,1.8-0.2,2.6-0.2c1.1,0,2.1,0.1,3,0.4c0.9,0.2,1.7,0.6,2.3,1.1c0.6,0.5,1.1,1.2,1.5,2c0.3,0.8,0.5,1.7,0.5,2.8v10.7h-3.3
			l-0.3-1.7c-0.5,0.7-1.1,1.2-1.9,1.5c-0.8,0.3-1.8,0.5-2.9,0.5c-0.8,0-1.6-0.1-2.3-0.3c-0.7-0.2-1.3-0.5-1.8-0.9
			c-0.5-0.4-0.9-0.9-1.2-1.6c-0.3-0.6-0.4-1.4-0.4-2.4V323.4z M420.2,323.5c0,0.8,0.3,1.4,0.8,1.8c0.5,0.4,1.3,0.6,2.4,0.6
			c1.2,0,2.1-0.2,2.7-0.7c0.6-0.5,0.8-1.1,0.8-1.9v-0.3c0-0.7-0.3-1.2-0.8-1.6c-0.5-0.4-1.3-0.6-2.4-0.6h-0.5c-1,0-1.8,0.2-2.3,0.6
			c-0.5,0.4-0.7,1-0.7,1.8V323.5z M443.8,305.3c1.9,0,3.4,0.3,4.6,0.8c1.2,0.5,2.1,1.2,2.8,2.2c0.7,0.9,1.2,2,1.4,3.3
			c0.3,1.3,0.4,2.7,0.4,4.3v2.8c0,1.6-0.1,3-0.4,4.3c-0.3,1.3-0.8,2.4-1.4,3.3c-0.7,0.9-1.6,1.6-2.8,2.1c-1.2,0.5-2.7,0.8-4.5,0.8
			c-1.8,0-3.3-0.3-4.5-0.8c-1.2-0.5-2.1-1.2-2.8-2.2c-0.7-0.9-1.2-2-1.4-3.3c-0.3-1.3-0.4-2.7-0.4-4.3v-2.8c0-1.6,0.1-3,0.4-4.3
			c0.3-1.3,0.8-2.4,1.5-3.3c0.7-0.9,1.6-1.6,2.8-2.1C440.5,305.5,442,305.3,443.8,305.3z M443.8,325.7c0.8,0,1.5-0.1,2.2-0.3
			c0.6-0.2,1.2-0.6,1.6-1.1c0.4-0.5,0.8-1.3,1-2.2c0.2-0.9,0.3-2.1,0.3-3.6v-2.8c0-1.5-0.1-2.7-0.3-3.6c-0.2-0.9-0.5-1.7-0.9-2.2
			c-0.4-0.5-0.9-0.9-1.6-1.1c-0.6-0.2-1.4-0.3-2.2-0.3c-0.8,0-1.5,0.1-2.2,0.3c-0.6,0.2-1.2,0.6-1.6,1.1c-0.4,0.5-0.8,1.2-1,2.2
			c-0.2,0.9-0.3,2.1-0.3,3.6v2.8c0,1.5,0.1,2.7,0.3,3.6c0.2,0.9,0.5,1.6,1,2.2c0.4,0.5,1,0.9,1.6,1.1
			C442.2,325.6,443,325.7,443.8,325.7z M471.6,320.7c0,1.4-0.2,2.6-0.5,3.6c-0.3,1-0.8,1.9-1.4,2.5c-0.6,0.7-1.4,1.2-2.2,1.5
			c-0.9,0.3-1.8,0.5-2.9,0.5c-0.8,0-1.5-0.1-2.2-0.3c-0.6-0.2-1.3-0.5-2-0.9v8.3h-3.9v-24.1h3.4l0.3,1.8c1.1-1.4,2.8-2.1,5.1-2.1
			c1,0,1.9,0.1,2.7,0.4c0.8,0.3,1.5,0.8,2,1.4c0.5,0.6,1,1.5,1.2,2.5c0.3,1,0.4,2.3,0.4,3.8V320.7z M467.6,319.7
			c0-0.8,0-1.5-0.1-2.1c-0.1-0.6-0.3-1.2-0.5-1.6c-0.3-0.4-0.6-0.8-1.1-1c-0.5-0.2-1.1-0.4-1.8-0.4c-0.7,0-1.4,0.1-1.8,0.3
			c-0.5,0.2-0.8,0.5-1.1,0.9c-0.3,0.4-0.5,0.9-0.6,1.4c-0.1,0.5-0.2,1.1-0.2,1.7v6c0.6,0.3,1.1,0.5,1.6,0.7c0.5,0.1,1,0.2,1.7,0.2
			c1.4,0,2.5-0.4,3.1-1.2c0.6-0.8,0.9-2,0.9-3.7V319.7z"/>
		<g>
			<path style="fill:#53565A;" d="M472.9,313.6c0-0.3,0.1-0.5,0.2-0.8c0.1-0.2,0.3-0.5,0.4-0.6c0.2-0.2,0.4-0.3,0.6-0.4
				s0.5-0.2,0.8-0.2c0.3,0,0.5,0.1,0.8,0.2s0.5,0.3,0.6,0.4c0.2,0.2,0.3,0.4,0.4,0.6c0.1,0.2,0.2,0.5,0.2,0.8c0,0.3-0.1,0.5-0.2,0.8
				c-0.1,0.2-0.3,0.5-0.4,0.6c-0.2,0.2-0.4,0.3-0.6,0.4s-0.5,0.2-0.8,0.2c-0.3,0-0.5-0.1-0.8-0.2s-0.5-0.3-0.6-0.4
				c-0.2-0.2-0.3-0.4-0.4-0.6C473,314.2,472.9,313.9,472.9,313.6z M473.2,313.6c0,0.2,0,0.5,0.1,0.7c0.1,0.2,0.2,0.4,0.4,0.6
				c0.2,0.2,0.3,0.3,0.6,0.4c0.2,0.1,0.4,0.1,0.7,0.1c0.2,0,0.5,0,0.7-0.1c0.2-0.1,0.4-0.2,0.6-0.4c0.2-0.2,0.3-0.3,0.4-0.6
				c0.1-0.2,0.1-0.4,0.1-0.7s0-0.5-0.1-0.7c-0.1-0.2-0.2-0.4-0.4-0.6c-0.2-0.2-0.3-0.3-0.6-0.4c-0.2-0.1-0.4-0.1-0.7-0.1
				c-0.2,0-0.5,0-0.7,0.1c-0.2,0.1-0.4,0.2-0.6,0.4c-0.2,0.2-0.3,0.3-0.4,0.6C473.3,313.2,473.2,313.4,473.2,313.6z M474.5,314.8
				h-0.3v-2.4h0.9c0.3,0,0.5,0.1,0.6,0.2c0.1,0.1,0.2,0.3,0.2,0.5c0,0.1,0,0.2,0,0.3c0,0.1-0.1,0.1-0.1,0.2
				c-0.1,0.1-0.1,0.1-0.2,0.1c-0.1,0-0.1,0.1-0.2,0.1l0.7,1h-0.3l-0.7-1h-0.4V314.8z M474.5,313.5h0.4c0.1,0,0.2,0,0.2,0
				c0.1,0,0.2,0,0.2,0c0.1,0,0.1-0.1,0.2-0.1c0-0.1,0.1-0.1,0.1-0.2c0-0.1,0-0.1,0-0.2c0,0-0.1-0.1-0.1-0.1c0,0-0.1-0.1-0.2-0.1
				c-0.1,0-0.1,0-0.2,0h-0.5V313.5z"/>
		</g>
	</g>
	<g>
		<path style="fill:#9E1C66;" d="M348.5,301.7l-4.2,5.1l-8.3,1.8l-1.7-6.2l6.9-8.8L348.5,301.7z M340.5,291.9l-1.7-3.9l-16.4-11.2
			l-6.2-0.8l5.1,11.8L340.5,291.9z M349.1,300.8l3-6.4v-2.7l-6.2-1.6l-3.9,2.8L349.1,300.8z M340.5,292.9l-18.7-4l1.1,2.5l10.9,10.2
			L340.5,292.9z M353.1,291.8v2.3l14.7-1.2c0.1,0,0.1-0.1,0.1-0.1l0,0c0-0.1-0.1-0.1-0.1-0.1L353.1,291.8z M341.8,308.4l7.1,7.9
			l4.2-2.5l-8.7-5.9L341.8,308.4z M340.6,308.6l-0.9,0.2l1,9.6l5,4.3l2.5-5.8L340.6,308.6z M338.7,309.1l-2.5,0.5l-2,5.7l3.3,5.8
			l2.3-2.6L338.7,309.1z"/>
		<g>
			<path style="fill:#9E1C66;" d="M348.3,321.4h-0.5v-0.2h1.3v0.2h-0.5v1.4h-0.2V321.4z"/>
			<path style="fill:#9E1C66;" d="M349.2,321.1h0.3l0.5,1.3h0l0.5-1.3h0.3v1.7h-0.2v-1.4h0l-0.6,1.4H350l-0.6-1.4h0v1.4h-0.2V321.1z
				"/>
		</g>
	</g>
</g>
</svg>
